<!-- icon666.com - MILLIONS vector ICONS FREE --><svg id="Layer_1" enable-background="new 0 0 512 512" viewBox="0 0 512 512" xmlns="http://www.w3.org/2000/svg"><path d="m256 128.296 70.83 110.915h-141.66zm-18.291 134.915-52.539 82.273h141.659l-52.539-82.273zm274.291-7.211c0 141.159-114.841 256-256 256s-256-114.841-256-256 114.841-256 256-256 256 114.841 256 256zm-209.233 7.211h45.964c4.383 0 8.417-2.39 10.524-6.233 2.106-3.845 1.949-8.531-.41-12.226l-92.732-145.211c-2.204-3.452-6.017-5.541-10.113-5.541s-7.909 2.089-10.114 5.541l-92.731 145.211c-2.359 3.694-2.516 8.381-.41 12.226 2.106 3.844 6.141 6.233 10.524 6.233h45.964l-56.078 87.814c-2.359 3.694-2.516 8.381-.41 12.226 2.106 3.844 6.141 6.233 10.524 6.233h80.731v36.516c0 6.628 5.373 12 12 12s12-5.372 12-12v-36.516h80.731c4.383 0 8.417-2.39 10.524-6.233 2.106-3.845 1.949-8.531-.41-12.226z"></path></svg>