<svg width="385" height="385" viewBox="0 0 385 385" fill="none" xmlns="http://www.w3.org/2000/svg">
<g clip-path="url(#clip0_138_30)">
<path d="M316.89 0H68.11C30.4939 0 0 30.4939 0 68.11V316.89C0 354.506 30.4939 385 68.11 385H316.89C354.506 385 385 354.506 385 316.89V68.11C385 30.4939 354.506 0 316.89 0Z" fill="#032340"/>
<path d="M110.39 194L95.4502 178.36C83.5202 189.09 71.8202 199.66 60.0702 210.15C52.6102 216.817 45.0969 223.41 37.5302 229.93C36.3049 230.895 34.7522 231.344 33.201 231.184C31.6498 231.023 30.222 230.265 29.2202 229.07C28.9895 228.511 28.9051 227.903 28.9751 227.303C29.0451 226.703 29.2671 226.13 29.6202 225.64C33.9302 221.99 38.5302 218.69 42.8702 215.07C45.3202 213.07 47.3502 210.48 49.7402 208.36C64.2936 195.453 78.8736 182.57 93.4802 169.71C95.3002 168.11 96.8902 167.84 98.6502 169.95C102.16 174.15 105.83 178.22 109.65 182.58C113.38 179.41 116.97 176.58 120.25 173.51C124.78 169.21 129.06 164.64 133.46 160.21C136.62 157.03 139.8 153.87 143 150.73C147.27 146.55 151.6 142.43 155.89 138.26C160.18 134.09 164.21 130.12 168.36 126.05C168.609 125.75 168.876 125.466 169.16 125.2C175.37 120.56 175.81 118.97 182.27 126.34C189.61 134.71 197.53 142.57 205.27 150.71L280.45 89.27C276.91 89.15 273.88 89.2 270.91 88.83C270.11 88.74 269.47 87.35 268.76 86.56C269.594 86.1117 270.452 85.711 271.33 85.36C279.59 82.5 287.864 79.6666 296.15 76.86C297.115 76.6113 298.098 76.4374 299.09 76.34C299.43 83.6 289.44 101.85 283.38 103.58C284.56 99.82 285.54 96.71 286.7 93C282.78 96.19 279.18 99.07 275.63 102C267.84 108.45 260 114.85 252.31 121.41C242.19 130.043 232.134 138.743 222.14 147.51C218.41 150.77 214.99 154.4 211.14 157.51C206.97 160.88 204.4 160.51 200.88 156.72C193.42 148.72 186.04 140.72 178.29 133.01C177.38 132.11 173.67 132.64 172.36 133.77C164.59 140.52 156.98 147.48 149.62 154.68C138.75 165.32 128.14 176.22 117.41 187.01C115.16 189.27 112.89 191.5 110.39 194Z" fill="url(#paint0_linear_138_30)"/>
<path d="M127.1 292.12C126.55 291.66 125.66 291.64 125.1 291.22C120.18 287.89 115.1 284.71 110.43 281.11C104.35 276.46 97.6902 272.39 93.1402 265.11C101.71 267.7 109.74 268.6 117.91 267.11C119.022 266.73 120.073 266.191 121.03 265.51C120.22 264.44 119.63 262.84 118.56 262.38C110.12 258.71 104.47 251.66 99.0902 244.93C92.8302 237.12 88.2802 227.93 82.8502 219.45C82.1102 218.29 80.4802 216.97 79.3202 217.02C77.9802 217.07 76.5802 218.44 75.4402 219.48C74.6802 220.18 74.3902 221.35 73.7802 222.24C70.8502 226.54 67.9402 230.86 64.9002 235.1C62.4302 238.54 60.1902 242.28 57.1602 245.1C51.9802 250.01 46.3002 254.39 40.7402 258.88C39.5102 259.88 37.8102 260.27 36.5202 261.2C36.1556 261.473 35.8581 261.826 35.6502 262.232C35.4422 262.637 35.3294 263.084 35.3202 263.54C35.5241 263.945 35.8205 264.296 36.1853 264.566C36.5501 264.835 36.9731 265.015 37.4202 265.09C40.6103 265.691 43.8448 266.025 47.0902 266.09C52.2102 266.01 57.3202 265.46 62.4602 265.09C61.5402 266.23 60.8002 267.67 59.6202 268.52C51.1736 274.613 42.6669 280.613 34.1002 286.52C32.2602 287.79 29.9702 288.43 28.1002 289.66C26.8202 290.5 25.0202 291.91 25.1002 293.02C25.1802 294.13 26.7502 295.83 28.1002 296.56C29.4502 297.29 31.2502 297.28 32.8702 297.43C39.7402 298.06 46.3802 296.51 52.7802 294.43C57.6502 292.85 62.1602 290.16 66.9402 287.91C67.0627 288.181 67.1339 288.473 67.1502 288.77C66.9602 294.29 66.8002 299.77 66.5102 305.32C66.3802 307.82 67.7202 309.16 69.8702 309.32C74.524 309.745 79.1994 309.885 83.8702 309.74C85.2002 309.68 87.4202 308.03 87.5802 306.89C88.2302 302.06 88.2902 297.15 88.4702 292.27C88.4022 290.694 88.2318 289.124 87.9602 287.57C91.2002 289.77 93.5002 291.98 96.2402 293.07C102.054 295.563 108.078 297.534 114.24 298.96C118.48 299.82 123.1 299.11 127.5 298.6C128.61 298.47 130.32 296.43 130.29 295.31C130.26 294.19 128.25 293.11 127.1 292.12ZM113.43 294.25C109.43 293.4 105.28 292.83 101.52 291.32C97.0802 289.52 92.9802 286.85 88.7402 284.55C87.6502 283.96 86.0502 282.62 85.5802 282.94C85.0337 283.342 84.5746 283.85 84.2308 284.435C83.8869 285.019 83.6656 285.667 83.5802 286.34C83.2502 292.52 83.1902 298.71 83.0302 305.5L71.3702 305.21C71.4702 301.13 71.6302 297.29 71.6402 293.46C71.7225 290.639 71.6089 287.815 71.3002 285.01C70.9102 282.14 69.4102 281.83 66.8902 283.24C64.1202 284.78 60.6802 285.39 58.3402 287.35C55.2602 289.94 51.7502 290.24 48.2202 290.89C44.1402 291.64 40.0402 292.22 35.9502 292.89L35.4702 291.66C36.8102 290.75 38.0902 289.75 39.4702 288.94C47.1502 284.55 54.6902 279.94 60.6902 273.31C64.0878 269.496 67.2918 265.515 70.2902 261.38C70.9002 260.55 70.8902 258.16 70.3502 257.83C69.0247 257.08 67.475 256.828 65.9802 257.12C60.3202 258.47 54.7502 260.12 49.1202 261.62C47.8398 261.869 46.5193 261.821 45.2602 261.48C60.2202 252.34 68.4402 237.37 79.0002 224C88.8902 237.68 96.2502 253.1 110.87 262.56L110.58 263.38C108.56 263.281 106.552 263.003 104.58 262.55C99.7602 261.03 95.0602 259.1 90.2302 257.6C88.9802 257.22 86.8402 257.31 86.2302 258.08C85.6202 258.85 85.6302 261.08 86.2302 262.19C93.3009 274.021 103.285 283.844 115.23 290.72C116.264 291.334 117.265 292.002 118.23 292.72C119.058 293.279 119.647 294.128 119.88 295.1C117.71 294.82 115.54 294.69 113.43 294.25Z" fill="url(#paint1_linear_138_30)"/>
<path d="M275.82 220.82C269.22 222.95 263.04 225.1 256.77 226.92C252.32 228.21 248.77 225.67 249.87 222.04C250.4 220.28 252.11 218.83 253.41 217.35C258.15 211.92 263.03 206.62 267.68 201.13C270.21 198.13 272.38 194.88 274.68 191.74L274.2 190.74C271.27 191.03 268.32 191.66 265.4 191.53C260.59 191.276 255.797 190.772 251.04 190.02C250.25 189.9 249.32 188.41 249.1 187.42C249.045 186.923 249.107 186.42 249.28 185.952C249.454 185.483 249.734 185.061 250.1 184.72C258.41 179.2 265.01 171.87 271.26 164.28C276.56 157.84 281.26 150.87 286.26 144.17C288.061 141.649 289.99 139.223 292.04 136.9C294.59 134.13 296.36 134.27 298.5 137.45C300.89 141.01 302.88 144.83 305.23 148.45C308.38 153.23 311.38 158.17 315.03 162.56C320.872 169.554 327.689 175.673 335.27 180.73C336.65 181.65 337.44 183.44 338.5 184.83L337.93 186.4L314.04 189.81C316.16 192.81 318.43 196.17 320.8 199.44C322.05 201.16 323.4 202.82 324.8 204.44C328.85 209 333.03 213.44 337 218.09C338.25 219.54 339.8 221.45 339.78 223.09C339.73 226.77 337.45 228.09 333.56 226.86C327.73 225.05 322.02 222.86 316.26 220.86L314 220.09C315.48 222.16 316.41 223.44 317.32 224.73C320.39 229.08 323.13 233.73 326.61 237.73C331.3 243.13 336.48 248.13 341.61 253.13C344.02 255.48 346.99 257.27 349.3 259.69C350.03 260.45 350.05 262.88 349.37 263.81C347.02 267.03 338.53 269.19 334.73 267.64C329.4 265.46 324.18 262.99 318.91 260.64C318.23 260.34 317.54 260.06 316.28 259.54C324.28 269.1 331.99 277.9 341.46 285.15C347.04 289.42 352.32 293.92 358.7 296.99C359.52 297.38 360.04 299.29 359.96 300.44C359.79 303.06 356.4 306.35 353.76 306.28C348.09 306.14 342.4 305.88 336.76 305.28C326.03 304.08 317.01 298.48 306.84 292.92C307.17 297.47 307.03 301.51 307.84 305.34C308.65 309.17 308.66 310.2 304.84 310.84C299.38 311.76 293.84 312.5 288.36 312.91C284.08 313.22 282.27 310.75 282.68 306.54C283.09 302.33 283.17 297.94 283.42 293.01C278.66 295.56 274.58 297.94 270.33 299.96C259.974 304.958 248.488 307.152 237.02 306.32C234.893 306.063 232.846 305.35 231.02 304.23C228.62 302.88 228.45 299.83 230.5 297.82C231.51 296.916 232.621 296.131 233.81 295.48C237.27 293.35 241.1 291.69 244.16 289.1C251.25 283.1 258.09 276.79 264.78 270.34C268 267.24 270.65 263.55 273.85 259.78C269.71 261.72 265.92 263.37 262.24 265.25C256.29 268.25 250.24 269.25 244.09 266.16C242.8 265.53 241.27 264.72 240.68 263.56C240.09 262.4 240.26 260.39 241 259.67C245.13 255.67 249.73 252.12 253.8 248.06C258.469 243.413 262.899 238.529 267.07 233.43C270.36 229.55 272.91 225.12 275.82 220.82ZM260.21 218.82L260.68 219.38C262.28 218.91 263.91 218.54 265.48 217.97C272.033 215.717 278.057 212.147 283.18 207.48C283.89 206.82 285.18 206.77 286.18 206.48C286.565 207.582 286.879 208.708 287.12 209.85C287.2 210.33 286.75 210.85 286.56 211.42C282.36 223.04 275.39 232.98 267.11 241.92C261.24 248.24 254.53 253.79 248.2 259.68L249.2 260.76C250.837 260.311 252.51 260.003 254.2 259.84C259.66 259.73 264.54 257.71 269.2 255.27C273.2 253.19 276.82 250.49 280.65 248.14C282.36 247.08 284.4 244.46 286.1 247.06C287.1 248.56 286.1 251.36 285.92 253.57C285.92 253.97 285.43 254.32 285.18 254.71C276.55 268.2 264.94 278.92 252.95 289.28C248.7 292.95 244.26 296.39 239.29 300.44C242.03 300.26 244.02 300.29 245.94 299.97C250.05 299.28 254.17 298.58 258.2 297.57C262.46 296.629 266.635 295.335 270.68 293.7C275.8 291.44 280.58 288.44 285.61 285.96C286.103 285.881 286.609 285.931 287.077 286.106C287.545 286.282 287.96 286.576 288.28 286.96C288.896 288.288 289.207 289.736 289.19 291.2C289.28 296.7 289.19 302.2 289.19 308.2L302 306.2C302 300.07 302.05 294.03 302 288C302 285.88 303 285.34 304.8 285.85C305.655 286.167 306.476 286.569 307.25 287.05C311.73 289.4 316.03 292.22 320.73 293.98C326.747 296.109 332.892 297.856 339.13 299.21C342.78 300.06 346.6 300.15 350.21 300.56C339.98 291.22 329.8 282.32 320.12 272.92C315.254 267.963 310.774 262.64 306.72 257C305.08 254.83 304.36 251.9 303.51 249.22C303.497 248.749 303.596 248.282 303.797 247.857C303.999 247.431 304.298 247.059 304.67 246.77C305.085 246.533 305.547 246.388 306.023 246.345C306.499 246.302 306.979 246.362 307.43 246.52C309.083 247.287 310.638 248.25 312.06 249.39C320.68 256.22 328.91 259.68 341.4 260.26C341.09 259.79 340.5 259.6 340.11 259.21C329.31 248.58 318.28 238.15 310.56 224.9C308.043 220.732 305.763 216.425 303.73 212C303.13 210.63 304.19 208.54 304.48 206.78C305.993 207.177 307.458 207.737 308.85 208.45C312.06 210.56 314.92 213.29 318.29 215.07C321.9 216.99 325.94 218.07 329.79 219.59L330.3 218.71C328.42 216.65 326.43 214.71 324.69 212.5C321.23 208.15 317.76 203.79 314.58 199.24C311.614 195.119 308.925 190.806 306.53 186.33C305 183.4 306.28 182.07 309.53 182.47C311.22 182.68 312.91 182.93 314.6 183.2C318.223 183.732 321.924 183.212 325.26 181.7C322.09 178.25 319.26 174.7 315.98 171.7C308.57 164.91 302.74 156.84 297.4 148.48C295.52 145.55 294.34 146.39 293 147.94C289.75 151.69 287 155.82 283.67 159.55C278.14 165.84 272.42 171.97 266.67 178.11C264.41 180.54 261.98 182.81 259.22 185.55C263.22 185.2 266.34 185.13 269.43 184.55C272.85 183.96 276.17 182.86 279.58 182.19C280.782 182.122 281.987 182.226 283.16 182.5C283.122 183.646 282.937 184.782 282.61 185.88C281.756 187.863 280.753 189.779 279.61 191.61C276.29 196.96 273.08 202.39 269.45 207.52C266.67 211.53 263.31 215.07 260.21 218.79V218.82Z" fill="url(#paint2_linear_138_30)"/>
<path d="M206 255.67C210 259.49 213.67 263.67 218 267.06C223.63 271.49 229.83 275.19 235.58 279.47C236.94 280.47 238.33 282.06 237.58 284.47C236.87 286.76 235.66 287.71 233.41 287.78C223.809 288.05 214.261 286.26 205.41 282.53C202.53 281.33 199.87 279.61 196.18 277.63C196.513 280.255 196.71 282.895 196.77 285.54C196.45 293.54 196.07 301.54 195.42 309.54C195.228 310.237 194.866 310.876 194.367 311.4C193.868 311.923 193.247 312.315 192.56 312.54C189.524 313.089 186.444 313.354 183.36 313.33C180.04 313.33 178.27 311.44 178.1 308.2C177.72 301.03 177.19 293.86 176.91 286.67C176.961 283.789 177.158 280.912 177.5 278.05C175.88 278.653 174.291 279.337 172.74 280.1C163.01 285.63 152.5 287.88 141.41 287.81H140.78C138.2 287.81 135.88 286.96 135.29 284.29C134.7 281.62 136.82 280.18 138.82 279.05C149.324 273.126 158.75 265.468 166.7 256.4C167 255.921 167.232 255.403 167.39 254.86C163.97 256.07 160.65 256.86 157.7 258.38C153.44 260.56 149.48 259.72 145.56 257.93C144.303 257.349 143.325 256.297 142.84 255C142.66 254.31 144.14 253.06 145.03 252.22C152.24 245.48 160.53 239.85 166.03 231.36C167.3 229.36 168.86 227.62 169.96 225.11C169.28 225.27 168.59 225.39 167.96 225.59C163.83 226.83 159.74 228.22 155.57 229.27C153.98 229.67 152.16 229.83 151.18 227.51C150.2 225.19 151.25 224.05 152.64 222.97C160.85 216.6 166.92 208.28 172.98 200.08C176.92 194.75 179.57 188.5 183.04 182.8C183.87 181.42 185.6 179.86 187.04 179.8C188.22 179.72 190.04 181.41 190.72 182.74C196.02 192.52 201.51 202.04 209.07 210.4C213.07 214.78 216.62 219.46 221.32 223.14C222.79 224.3 223.5 225.71 222.53 227.75C221.46 229.99 219.53 229.67 218.01 229.26C213.75 228.13 209.59 226.66 205.38 225.34C205.02 225.23 204.62 225.22 203.62 225.78C207.25 230.4 210.51 235.4 214.62 239.55C219.46 244.44 225.09 248.55 230.19 253.16C230.79 253.71 230.7 256.21 230.07 256.7C226.8 259.24 222.92 260.5 218.82 259.32C214.72 258.14 210.73 256.45 206.7 254.98L206 255.67ZM230 282.93L230.16 282C227.43 279.87 224.75 277.65 221.95 275.61C212.543 268.86 204.046 260.924 196.67 252C195.436 250.244 194.512 248.289 193.94 246.22C193.827 245.774 193.828 245.308 193.941 244.863C194.055 244.417 194.278 244.007 194.59 243.67C195.035 243.519 195.508 243.466 195.975 243.514C196.443 243.563 196.895 243.711 197.3 243.95C200.81 245.87 204.13 248.15 207.7 249.95C212.364 252.442 217.618 253.617 222.9 253.35C222.591 252.905 222.257 252.478 221.9 252.07C215.45 245.54 208.75 239.24 202.62 232.41C199.5 228.93 197.28 224.59 194.94 220.48C194.37 219.48 194.94 217.82 195.02 216.48C196.28 216.64 197.55 216.74 198.8 216.98C199.275 217.168 199.728 217.41 200.15 217.7L214.88 224.49L186.78 187.49L159.35 223.6C160.651 223.316 161.931 222.941 163.18 222.48C167.5 220.56 171.72 218.43 176.08 216.6C177.03 216.2 178.36 216.71 179.52 216.8C179.42 217.86 179.63 219.06 179.18 219.93C175.234 227.602 170.112 234.611 164 240.7C159.81 244.9 155.25 248.7 150.42 253.12C153.23 253.12 155.55 253.74 157.3 253C163.49 250.39 169.47 247.27 175.57 244.42C176.723 244.01 177.911 243.709 179.12 243.52C179.305 244.812 179.412 246.115 179.44 247.42C179.321 248.129 179.026 248.796 178.58 249.36C172.99 257.94 165.43 264.64 157.58 271.07C152.99 274.84 148.22 278.39 143.01 282.44C144.5 282.74 145.49 283.22 146.36 283.06C151.6 282.06 156.96 281.37 162 279.72C167.6 277.89 172.93 275.21 178.31 272.72C180.31 271.81 181.13 271.92 181.11 274.39C181.063 279.97 181.123 285.547 181.29 291.12C181.46 296.75 181.83 302.37 182.11 308.12C184.69 308.12 186.97 308.22 189.22 308.12C190.79 308.02 191.74 307.34 191.76 305.38C191.92 295.05 192.3 284.73 192.47 274.38C192.47 271.9 193.31 271.78 195.28 272.73C199.344 274.85 203.528 276.733 207.81 278.37C212.882 280.027 218.039 281.409 223.26 282.51C225.42 283.05 227.71 282.83 229.93 282.93H230Z" fill="url(#paint3_linear_138_30)"/>
<path d="M41.0898 276.79L43.9798 271.77L46.8798 276.79H41.0898Z" fill="url(#paint4_linear_138_30)"/>
<path d="M43.9998 272.44L46.3298 276.44H41.6598L43.9798 272.44M43.9798 271.11L40.5098 277.11H47.5098L44.0298 271.11H43.9798Z" fill="#032340"/>
<path d="M41.4199 277.46H52.3699V286.76L41.4199 277.46Z" fill="url(#paint5_linear_138_30)"/>
<path d="M51.9998 277.79V286L42.2898 277.75H51.9998M52.6698 277.09H40.5098L52.6998 287.48V277.13L52.6698 277.09Z" fill="#032340"/>
<path d="M47.6596 276.79L44.5596 271.46H52.3696V276.79H47.6596Z" fill="url(#paint6_linear_138_30)"/>
<path d="M52 271.79V276.46H47.85L45.14 271.79H52ZM52.67 271.13H44C45.16 273.13 46.3167 275.13 47.47 277.13H52.7V271.13H52.67Z" fill="#032340"/>
<path d="M58.5098 276.79L61.4098 271.77L64.3098 276.79H58.5098Z" fill="url(#paint7_linear_138_30)"/>
<path d="M61.4104 272.44L63.7304 276.44H59.0904L61.4104 272.44ZM61.4104 271.11L57.9404 277.11H64.9404L61.4604 271.11H61.4104Z" fill="#032340"/>
<path d="M53.0303 277.46H63.9803L53.0303 286.76V277.46Z" fill="url(#paint8_linear_138_30)"/>
<path d="M63.0702 277.79L53.3602 286V277.75H63.0702M64.8902 277.09H52.7002V287.44L64.8902 277.09Z" fill="#032340"/>
<path d="M53.0303 276.79V271.46H60.8303L57.7403 276.79H53.0303Z" fill="url(#paint9_linear_138_30)"/>
<path d="M60.2502 271.79L59.1002 273.79L57.5502 276.46H53.3602V271.79H60.2502ZM61.4102 271.13H52.7002V277.13H57.9302L61.4102 271.13Z" fill="#032340"/>
<path d="M87.6201 250.2L90.5201 245.18L93.4201 250.2H87.6201Z" fill="url(#paint10_linear_138_30)"/>
<path d="M90.5198 245.85L92.8398 249.85H88.1998L90.5198 245.85ZM90.5198 244.52L87.0498 250.52H93.9998L90.5298 244.52H90.5198Z" fill="#032340"/>
<path d="M87.9502 250.87H98.9002V260.17L87.9502 250.87Z" fill="url(#paint11_linear_138_30)"/>
<path d="M98.5698 251.2V259.45L88.8598 251.2H98.5698ZM99.2298 250.53H87.0498L99.2298 260.89V250.53Z" fill="#032340"/>
<path d="M94.1896 250.2L91.0996 244.87H98.8996V250.2H94.1896Z" fill="url(#paint12_linear_138_30)"/>
<path d="M98.5695 245.2V249.87H94.3795L91.6795 245.2H98.5695ZM99.2295 244.54H90.5195L93.9995 250.54H99.2295V244.54Z" fill="#032340"/>
<path d="M105.05 250.2L107.95 245.18L110.84 250.2H105.05Z" fill="url(#paint13_linear_138_30)"/>
<path d="M108 245.85L110.32 249.85H105.68L108 245.85ZM108 244.52L104.52 250.52H111.52L108.05 244.52H108Z" fill="#032340"/>
<path d="M99.5703 250.87H110.52L99.5703 260.17V250.87Z" fill="url(#paint14_linear_138_30)"/>
<path d="M109.61 251.2L99.9005 259.45V251.2H109.61ZM111.42 250.53H99.2305V260.89L111.42 250.53Z" fill="#032340"/>
<path d="M99.5703 250.2V244.87H107.37L104.28 250.2H99.5703Z" fill="url(#paint15_linear_138_30)"/>
<path d="M106.79 245.2L105.63 247.2L104.08 249.87H99.9005V245.2H106.79ZM107.94 244.54H99.2305V250.54H104.47L107.94 244.54Z" fill="#032340"/>
<path d="M154.1 279.01L157 273.99L159.9 279.01H154.1Z" fill="url(#paint16_linear_138_30)"/>
<path d="M157 274.65L159.32 278.65H154.68L157 274.65ZM157 273.32L153.52 279.32H160.47L157 273.32Z" fill="#032340"/>
<path d="M154.43 279.67H165.38V288.98L154.43 279.67Z" fill="url(#paint17_linear_138_30)"/>
<path d="M165.05 280V288.25L155.34 280H165.05ZM165.71 279.33H153.52L165.71 289.68V279.34V279.33Z" fill="#032340"/>
<path d="M160.67 279.01L157.58 273.68H165.38V279.01H160.67Z" fill="url(#paint18_linear_138_30)"/>
<path d="M165.05 274V278.67H160.86L158.16 274H165.05ZM165.71 273.33H157L160.48 279.33H165.71V273.33Z" fill="#032340"/>
<path d="M171.53 279.01L174.43 273.99L177.32 279.01H171.53Z" fill="url(#paint19_linear_138_30)"/>
<path d="M174.43 274.65L176.75 278.65H172.1L174.43 274.65ZM174.43 273.32L170.95 279.32H177.95L174.48 273.32H174.43Z" fill="#032340"/>
<path d="M166.04 279.67H176.99L166.04 288.98V279.67Z" fill="url(#paint20_linear_138_30)"/>
<path d="M176.09 280L166.38 288.25V280H176.09ZM177.9 279.33H165.71V289.68L177.9 279.33Z" fill="#032340"/>
<path d="M166.04 279.01V273.68H173.85L170.75 279.01H166.04Z" fill="url(#paint21_linear_138_30)"/>
<path d="M173.27 274L172.11 276L170.56 278.67H166.38V274H173.27ZM174.42 273.33H165.71V279.33H171L174.47 273.33H174.42Z" fill="#032340"/>
<path d="M303.68 230.26L306.57 225.24L309.47 230.26H303.68Z" fill="url(#paint22_linear_138_30)"/>
<path d="M306.58 225.9L308.9 229.9H304.25L306.58 225.9ZM306.58 224.57L303.1 230.57H310.05L306.58 224.57Z" fill="#032340"/>
<path d="M304.01 230.92H314.96V240.22L304.01 230.92Z" fill="url(#paint23_linear_138_30)"/>
<path d="M314.62 231.26V239.51L304.91 231.26H314.62ZM315.29 230.59H303.1L315.29 240.94V230.59Z" fill="#032340"/>
<path d="M310.25 230.26L307.16 224.92H314.96V230.26H310.25Z" fill="url(#paint24_linear_138_30)"/>
<path d="M314.62 225.26V229.92H310.44L307.73 225.26H314.62ZM315.29 224.59H306.58C307.74 226.59 308.897 228.59 310.05 230.59H315.29V224.59Z" fill="#032340"/>
<path d="M321.11 230.26L324 225.24L326.9 230.26H321.11Z" fill="url(#paint25_linear_138_30)"/>
<path d="M324 225.9L326.32 229.9H321.68L324 225.9ZM324 224.57L320.53 230.57H327.53L324.05 224.57H324Z" fill="#032340"/>
<path d="M315.62 230.92H326.57L315.62 240.22V230.92Z" fill="url(#paint26_linear_138_30)"/>
<path d="M325.67 231.26L316 239.51V231.26H325.72M327.53 230.59H315.29V240.94L327.48 230.59H327.53Z" fill="#032340"/>
<path d="M315.62 230.26V224.92H323.42L320.33 230.26H315.62Z" fill="url(#paint27_linear_138_30)"/>
<path d="M322.85 225.26L321.69 227.26L320.14 229.92H316V225.26H322.9M324.05 224.59H315.34V230.59H320.57L324.05 224.59Z" fill="#032340"/>
<path d="M249.55 254.9L253.28 248.45L257 254.9H249.55Z" fill="url(#paint28_linear_138_30)"/>
<path d="M253.28 249.3L256.28 254.47H250.28L253.28 249.3ZM253.28 247.59L248.81 255.33H257.75L253.28 247.59Z" fill="#032340"/>
<path d="M249.97 255.76H264.06V267.72L249.97 255.76Z" fill="url(#paint29_linear_138_30)"/>
<path d="M263.63 256.19V266.79L251.14 256.19H263.63ZM264.48 255.33H248.81L264.48 268.64V255.33Z" fill="#032340"/>
<path d="M258 254.9L254.02 248.04H264.06V254.9H258Z" fill="url(#paint30_linear_138_30)"/>
<path d="M263.63 248.47V254.47H258.24L254.77 248.47H263.63ZM264.48 247.62H253.28L257.75 255.33H264.48V247.62Z" fill="#032340"/>
<path d="M271.96 254.9L275.69 248.45L279.41 254.9H271.96Z" fill="url(#paint31_linear_138_30)"/>
<path d="M275.69 249.3L278.69 254.47H272.69L275.69 249.3ZM275.69 247.59L271.22 255.33H280.15L275.69 247.59Z" fill="#032340"/>
<path d="M264.91 255.76H278.99L264.91 267.72V255.76Z" fill="url(#paint32_linear_138_30)"/>
<path d="M277.83 256.19L265.34 266.79V256.19H277.83ZM280.15 255.33H264.48V268.64L280.15 255.33Z" fill="#032340"/>
<path d="M264.91 254.9V248.04H274.94L270.97 254.9H264.91Z" fill="url(#paint33_linear_138_30)"/>
<path d="M274.2 248.47L272.71 251L270.71 254.43H265.33V248.43H274.19M275.67 247.58H264.47V255.29H271.2L275.67 247.58Z" fill="#032340"/>
<path d="M323.79 283.71L327.51 277.25L331.24 283.71H323.79Z" fill="url(#paint34_linear_138_30)"/>
<path d="M327.51 278.11L330.51 283.28H324.51L327.51 278.11ZM327.51 276.4L323 284.14H332L327.53 276.4H327.51Z" fill="#032340"/>
<path d="M324.21 284.56H338.29V296.53L324.21 284.56Z" fill="url(#paint35_linear_138_30)"/>
<path d="M337.86 285V295.6L325.37 285H337.86ZM338.72 284.15H323L338.68 297.46V284.14L338.72 284.15Z" fill="#032340"/>
<path d="M332.23 283.71L328.26 276.85H338.29V283.71H332.23Z" fill="url(#paint36_linear_138_30)"/>
<path d="M337.86 277.28V283.28H332.48L329 277.28H337.86ZM338.72 276.42H327.52L331.99 284.14H338.72V276.42Z" fill="#032340"/>
<path d="M346.19 283.71L349.92 277.25L353.65 283.71H346.19Z" fill="url(#paint37_linear_138_30)"/>
<path d="M349.92 278.11L352.92 283.28H346.92L349.92 278.11ZM349.92 276.4L345.45 284.14H354.39L349.92 276.4Z" fill="#032340"/>
<path d="M339.14 284.56H353.22L339.14 296.53V284.56Z" fill="url(#paint38_linear_138_30)"/>
<path d="M352.06 285L339.57 295.6V285H352.06ZM354.39 284.15H338.72V297.46L354.39 284.15Z" fill="#032340"/>
<path d="M339.14 283.71V276.85H349.18L345.2 283.71H339.14Z" fill="url(#paint39_linear_138_30)"/>
<path d="M348.43 277.28L346.94 279.85L344.94 283.28H339.56V277.28H348.42M349.91 276.42H338.71V284.14H345.44L349.91 276.42Z" fill="#032340"/>
<path d="M206.02 240.93L208.13 237.28L210.23 240.93H206.02Z" fill="url(#paint40_linear_138_30)"/>
<path d="M208.13 237.76L209.81 240.69H206.44L208.13 237.76ZM208.13 236.76L205.6 241.14H210.65L208.13 236.76Z" fill="#032340"/>
<path d="M206.26 241.41H214.22V248.18L206.26 241.41Z" fill="url(#paint41_linear_138_30)"/>
<path d="M214 241.65V247.65L206.94 241.65H214ZM214.48 241.17H205.6L214.46 248.7V241.17H214.48Z" fill="#032340"/>
<path d="M210.8 240.93L208.55 237.05H214.22V240.93H210.8Z" fill="url(#paint42_linear_138_30)"/>
<path d="M214 237.29V240.69H211L209 237.29H214ZM214.48 236.81H208.15L210.68 241.17H214.48V236.81Z" fill="#032340"/>
<path d="M218.69 240.93L220.8 237.28L222.91 240.93H218.69Z" fill="url(#paint43_linear_138_30)"/>
<path d="M220.8 237.76L222.49 240.69H219.11L220.8 237.76ZM220.8 236.76L218.27 241.14H223.33L220.8 236.76Z" fill="#032340"/>
<path d="M214.71 241.41H222.67L214.71 248.18V241.41Z" fill="url(#paint44_linear_138_30)"/>
<path d="M222 241.65L214.94 247.65V241.65H222ZM223.32 241.17H214.45V248.7L223.32 241.17Z" fill="#032340"/>
<path d="M214.71 240.93V237.05H220.38L218.13 240.93H214.71Z" fill="url(#paint45_linear_138_30)"/>
<path d="M220 237.29L219.16 238.75L218 240.69H215V237.29H220ZM220.84 236.81H214.5V241.17H218.31L220.84 236.81Z" fill="#032340"/>
<path d="M259.33 199.79L262.07 195.04L264.82 199.79H259.33Z" fill="url(#paint46_linear_138_30)"/>
<path d="M262.07 195.67L264.27 199.48H259.87L262.07 195.67ZM262.07 194.41L258.78 200.11H265.37L262.07 194.41Z" fill="#032340"/>
<path d="M259.64 200.43H270.01V209.24L259.64 200.43Z" fill="url(#paint47_linear_138_30)"/>
<path d="M269.7 200.74V208.56L260.5 200.74H269.7ZM270.33 200.11H258.78L270.33 209.92V200.11Z" fill="#032340"/>
<path d="M265.55 199.79L262.62 194.74H270.01V199.79H265.55Z" fill="url(#paint48_linear_138_30)"/>
<path d="M269.7 195.06V199.48H265.7L263.14 195.06H269.67M270.3 194.43H262.05L265.34 200.11H270.34V194.43H270.3Z" fill="#032340"/>
<path d="M275.84 199.79L278.59 195.04L281.33 199.79H275.84Z" fill="url(#paint49_linear_138_30)"/>
<path d="M278.59 195.67L280.79 199.48H276.39L278.59 195.67ZM278.59 194.41L275.29 200.11H281.88L278.59 194.41Z" fill="#032340"/>
<path d="M270.64 200.43H281.02L270.64 209.24V200.43Z" fill="url(#paint50_linear_138_30)"/>
<path d="M280.16 200.74L270.96 208.56V200.74H280.16ZM281.88 200.11H270.33V209.92L281.88 200.11Z" fill="#032340"/>
<path d="M270.64 199.79V194.74H278.04L275.11 199.79H270.64Z" fill="url(#paint51_linear_138_30)"/>
<path d="M277.49 195.06L276.39 196.95L274.93 199.48H270.93V195.06H277.46M278.55 194.43H270.3V200.11H275.3L278.59 194.43H278.55Z" fill="#032340"/>
<path d="M162.81 208.8L164.91 205.15L167.02 208.8H162.81Z" fill="url(#paint52_linear_138_30)"/>
<path d="M164.91 205.63L166.6 208.55H163.23L164.91 205.63ZM164.91 204.63L162.39 209H167.44L164.91 204.62V204.63Z" fill="#032340"/>
<path d="M163.05 209.28H171.01V216.04L163.05 209.28Z" fill="url(#paint53_linear_138_30)"/>
<path d="M170.77 209.52V215.52L163.71 209.52H170.77ZM171.25 209.04H162.39L171.25 216.57V209V209.04Z" fill="#032340"/>
<path d="M167.59 208.8L165.34 204.92H171.01V208.8H167.59Z" fill="url(#paint54_linear_138_30)"/>
<path d="M170.77 205.16V208.55H167.72L165.72 205.16H170.72M171.2 204.68H164.87L167.4 209.04H171.2V204.68Z" fill="#032340"/>
<path d="M175.48 208.8L177.59 205.15L179.7 208.8H175.48Z" fill="url(#paint55_linear_138_30)"/>
<path d="M177.59 205.63L179.28 208.55H175.9L177.59 205.63ZM177.59 204.63L175.06 209H180.12L177.59 204.62V204.63Z" fill="#032340"/>
<path d="M171.49 209.28H179.46L171.49 216.04V209.28Z" fill="url(#paint56_linear_138_30)"/>
<path d="M178.8 209.52L171.74 215.52V209.52H178.8ZM180.12 209.04H171.25V216.57L180.12 209.04Z" fill="#032340"/>
<path d="M171.49 208.8V204.92H177.17L174.92 208.8H171.49Z" fill="url(#paint57_linear_138_30)"/>
<path d="M176.75 205.16L175.9 206.61L174.78 208.55H171.78V205.16H176.78M177.62 204.68H171.28V209H175.09L177.62 204.64V204.68Z" fill="#032340"/>
<path d="M307.95 170.02L310.06 166.37L312.17 170.02H307.95Z" fill="url(#paint58_linear_138_30)"/>
<path d="M310.06 166.85L311.75 169.78H308.37L310.06 166.85ZM310.06 165.85L307.53 170.23H312.59L310.06 165.85Z" fill="#032340"/>
<path d="M308.19 170.5H316.15V177.27L308.19 170.5Z" fill="url(#paint59_linear_138_30)"/>
<path d="M315.91 170.74V176.74L308.85 170.74H315.91ZM316.4 170.26H307.53L316.4 177.79V170.26Z" fill="#032340"/>
<path d="M312.73 170.02L310.48 166.14H316.15V170.02H312.73Z" fill="url(#paint60_linear_138_30)"/>
<path d="M315.91 166.38V169.78H312.91L310.91 166.38H315.91ZM316.4 165.9H310.06L312.59 170.26H316.4V165.9Z" fill="#032340"/>
<path d="M320.63 170.02L322.73 166.37L324.84 170.02H320.63Z" fill="url(#paint61_linear_138_30)"/>
<path d="M322.73 166.85L324.42 169.78H321.05L322.73 166.85ZM322.73 165.85L320.21 170.23H325.26L322.73 165.85Z" fill="#032340"/>
<path d="M316.64 170.5H324.6L316.64 177.27V170.5Z" fill="url(#paint62_linear_138_30)"/>
<path d="M323.94 170.74L316.88 176.74V170.74H323.94ZM325.26 170.26H316.4V177.79L325.26 170.26Z" fill="#032340"/>
<path d="M316.64 170.02V166.14H322.31L320.06 170.02H316.64Z" fill="url(#paint63_linear_138_30)"/>
<path d="M321.89 166.38L321.05 167.84L319.92 169.78H316.92V166.38H321.92M322.76 165.9H316.4V170.26H320.2L322.73 165.9H322.76Z" fill="#032340"/>
</g>
<defs>
<linearGradient id="paint0_linear_138_30" x1="25.8715" y1="160.136" x2="302.271" y2="147.681" gradientUnits="userSpaceOnUse">
<stop offset="0.01" stop-color="#E55C7D" stop-opacity="0.5"/>
<stop offset="0.08" stop-color="#E97893" stop-opacity="0.55"/>
<stop offset="0.23" stop-color="#F5BECB" stop-opacity="0.68"/>
<stop offset="0.36" stop-color="white" stop-opacity="0.8"/>
<stop offset="0.37" stop-color="#FDFFFC" stop-opacity="0.8"/>
<stop offset="0.59" stop-color="#DCFFAF" stop-opacity="0.89"/>
<stop offset="0.77" stop-color="#C4FF78" stop-opacity="0.95"/>
<stop offset="0.91" stop-color="#B5FF56" stop-opacity="0.99"/>
<stop offset="1" stop-color="#B0FF49"/>
</linearGradient>
<linearGradient id="paint1_linear_138_30" x1="77.1502" y1="350.33" x2="79.7302" y2="-1.16992" gradientUnits="userSpaceOnUse">
<stop stop-color="#032340"/>
<stop offset="0.09" stop-color="#294742"/>
<stop offset="0.29" stop-color="#89A246"/>
<stop offset="0.45" stop-color="#DEF249"/>
<stop offset="1" stop-color="#DEF249"/>
</linearGradient>
<linearGradient id="paint2_linear_138_30" x1="294.22" y1="351.92" x2="296.79" y2="0.420036" gradientUnits="userSpaceOnUse">
<stop stop-color="#032340"/>
<stop offset="0.09" stop-color="#294742"/>
<stop offset="0.29" stop-color="#89A246"/>
<stop offset="0.45" stop-color="#DEF249"/>
<stop offset="1" stop-color="#DEF249"/>
</linearGradient>
<linearGradient id="paint3_linear_138_30" x1="184.06" y1="162.56" x2="188.36" y2="379.99" gradientUnits="userSpaceOnUse">
<stop stop-color="#16BFFD"/>
<stop offset="0.26" stop-color="#0F81B6"/>
<stop offset="0.52" stop-color="#084B79"/>
<stop offset="0.74" stop-color="#04254D"/>
<stop offset="0.9" stop-color="#010D32"/>
<stop offset="1" stop-color="#000428"/>
</linearGradient>
<linearGradient id="paint4_linear_138_30" x1="41.0898" y1="274.28" x2="46.8798" y2="274.28" gradientUnits="userSpaceOnUse">
<stop stop-color="#D4FDFF"/>
<stop offset="0.2" stop-color="#A2ECFF"/>
<stop offset="0.48" stop-color="#66D6FF"/>
<stop offset="0.71" stop-color="#3AC7FF"/>
<stop offset="0.89" stop-color="#1FBEFF"/>
<stop offset="1" stop-color="#15BAFF"/>
</linearGradient>
<linearGradient id="paint5_linear_138_30" x1="41.4199" y1="282.11" x2="52.3699" y2="282.11" gradientUnits="userSpaceOnUse">
<stop stop-color="#D4FDFF"/>
<stop offset="0.2" stop-color="#A2ECFF"/>
<stop offset="0.48" stop-color="#66D6FF"/>
<stop offset="0.71" stop-color="#3AC7FF"/>
<stop offset="0.89" stop-color="#1FBEFF"/>
<stop offset="1" stop-color="#15BAFF"/>
</linearGradient>
<linearGradient id="paint6_linear_138_30" x1="44.5596" y1="274.13" x2="52.3696" y2="274.13" gradientUnits="userSpaceOnUse">
<stop stop-color="#D4FDFF"/>
<stop offset="0.2" stop-color="#A2ECFF"/>
<stop offset="0.48" stop-color="#66D6FF"/>
<stop offset="0.71" stop-color="#3AC7FF"/>
<stop offset="0.89" stop-color="#1FBEFF"/>
<stop offset="1" stop-color="#15BAFF"/>
</linearGradient>
<linearGradient id="paint7_linear_138_30" x1="58.5098" y1="274.28" x2="64.3098" y2="274.28" gradientUnits="userSpaceOnUse">
<stop stop-color="#D4FDFF"/>
<stop offset="0.2" stop-color="#A2ECFF"/>
<stop offset="0.48" stop-color="#66D6FF"/>
<stop offset="0.71" stop-color="#3AC7FF"/>
<stop offset="0.89" stop-color="#1FBEFF"/>
<stop offset="1" stop-color="#15BAFF"/>
</linearGradient>
<linearGradient id="paint8_linear_138_30" x1="53.0303" y1="282.11" x2="63.9803" y2="282.11" gradientUnits="userSpaceOnUse">
<stop stop-color="#D4FDFF"/>
<stop offset="0.2" stop-color="#A2ECFF"/>
<stop offset="0.48" stop-color="#66D6FF"/>
<stop offset="0.71" stop-color="#3AC7FF"/>
<stop offset="0.89" stop-color="#1FBEFF"/>
<stop offset="1" stop-color="#15BAFF"/>
</linearGradient>
<linearGradient id="paint9_linear_138_30" x1="53.0303" y1="274.13" x2="60.8303" y2="274.13" gradientUnits="userSpaceOnUse">
<stop stop-color="#D4FDFF"/>
<stop offset="0.2" stop-color="#A2ECFF"/>
<stop offset="0.48" stop-color="#66D6FF"/>
<stop offset="0.71" stop-color="#3AC7FF"/>
<stop offset="0.89" stop-color="#1FBEFF"/>
<stop offset="1" stop-color="#15BAFF"/>
</linearGradient>
<linearGradient id="paint10_linear_138_30" x1="87.6201" y1="247.69" x2="93.4201" y2="247.69" gradientUnits="userSpaceOnUse">
<stop stop-color="#D4FDFF"/>
<stop offset="0.2" stop-color="#A2ECFF"/>
<stop offset="0.48" stop-color="#66D6FF"/>
<stop offset="0.71" stop-color="#3AC7FF"/>
<stop offset="0.89" stop-color="#1FBEFF"/>
<stop offset="1" stop-color="#15BAFF"/>
</linearGradient>
<linearGradient id="paint11_linear_138_30" x1="87.9502" y1="255.52" x2="98.9002" y2="255.52" gradientUnits="userSpaceOnUse">
<stop stop-color="#D4FDFF"/>
<stop offset="0.2" stop-color="#A2ECFF"/>
<stop offset="0.48" stop-color="#66D6FF"/>
<stop offset="0.71" stop-color="#3AC7FF"/>
<stop offset="0.89" stop-color="#1FBEFF"/>
<stop offset="1" stop-color="#15BAFF"/>
</linearGradient>
<linearGradient id="paint12_linear_138_30" x1="91.0996" y1="247.53" x2="98.8996" y2="247.53" gradientUnits="userSpaceOnUse">
<stop stop-color="#D4FDFF"/>
<stop offset="0.2" stop-color="#A2ECFF"/>
<stop offset="0.48" stop-color="#66D6FF"/>
<stop offset="0.71" stop-color="#3AC7FF"/>
<stop offset="0.89" stop-color="#1FBEFF"/>
<stop offset="1" stop-color="#15BAFF"/>
</linearGradient>
<linearGradient id="paint13_linear_138_30" x1="105.05" y1="247.69" x2="110.84" y2="247.69" gradientUnits="userSpaceOnUse">
<stop stop-color="#D4FDFF"/>
<stop offset="0.2" stop-color="#A2ECFF"/>
<stop offset="0.48" stop-color="#66D6FF"/>
<stop offset="0.71" stop-color="#3AC7FF"/>
<stop offset="0.89" stop-color="#1FBEFF"/>
<stop offset="1" stop-color="#15BAFF"/>
</linearGradient>
<linearGradient id="paint14_linear_138_30" x1="99.5703" y1="255.52" x2="110.52" y2="255.52" gradientUnits="userSpaceOnUse">
<stop stop-color="#D4FDFF"/>
<stop offset="0.2" stop-color="#A2ECFF"/>
<stop offset="0.48" stop-color="#66D6FF"/>
<stop offset="0.71" stop-color="#3AC7FF"/>
<stop offset="0.89" stop-color="#1FBEFF"/>
<stop offset="1" stop-color="#15BAFF"/>
</linearGradient>
<linearGradient id="paint15_linear_138_30" x1="99.5703" y1="247.53" x2="107.37" y2="247.53" gradientUnits="userSpaceOnUse">
<stop stop-color="#D4FDFF"/>
<stop offset="0.2" stop-color="#A2ECFF"/>
<stop offset="0.48" stop-color="#66D6FF"/>
<stop offset="0.71" stop-color="#3AC7FF"/>
<stop offset="0.89" stop-color="#1FBEFF"/>
<stop offset="1" stop-color="#15BAFF"/>
</linearGradient>
<linearGradient id="paint16_linear_138_30" x1="154.1" y1="276.5" x2="159.9" y2="276.5" gradientUnits="userSpaceOnUse">
<stop stop-color="#D4FDFF"/>
<stop offset="0.2" stop-color="#A2ECFF"/>
<stop offset="0.48" stop-color="#66D6FF"/>
<stop offset="0.71" stop-color="#3AC7FF"/>
<stop offset="0.89" stop-color="#1FBEFF"/>
<stop offset="1" stop-color="#15BAFF"/>
</linearGradient>
<linearGradient id="paint17_linear_138_30" x1="154.43" y1="284.32" x2="165.38" y2="284.32" gradientUnits="userSpaceOnUse">
<stop stop-color="#D4FDFF"/>
<stop offset="0.2" stop-color="#A2ECFF"/>
<stop offset="0.48" stop-color="#66D6FF"/>
<stop offset="0.71" stop-color="#3AC7FF"/>
<stop offset="0.89" stop-color="#1FBEFF"/>
<stop offset="1" stop-color="#15BAFF"/>
</linearGradient>
<linearGradient id="paint18_linear_138_30" x1="157.58" y1="276.34" x2="165.38" y2="276.34" gradientUnits="userSpaceOnUse">
<stop stop-color="#D4FDFF"/>
<stop offset="0.2" stop-color="#A2ECFF"/>
<stop offset="0.48" stop-color="#66D6FF"/>
<stop offset="0.71" stop-color="#3AC7FF"/>
<stop offset="0.89" stop-color="#1FBEFF"/>
<stop offset="1" stop-color="#15BAFF"/>
</linearGradient>
<linearGradient id="paint19_linear_138_30" x1="171.53" y1="276.5" x2="177.32" y2="276.5" gradientUnits="userSpaceOnUse">
<stop stop-color="#D4FDFF"/>
<stop offset="0.2" stop-color="#A2ECFF"/>
<stop offset="0.48" stop-color="#66D6FF"/>
<stop offset="0.71" stop-color="#3AC7FF"/>
<stop offset="0.89" stop-color="#1FBEFF"/>
<stop offset="1" stop-color="#15BAFF"/>
</linearGradient>
<linearGradient id="paint20_linear_138_30" x1="166.04" y1="284.32" x2="176.99" y2="284.32" gradientUnits="userSpaceOnUse">
<stop stop-color="#D4FDFF"/>
<stop offset="0.2" stop-color="#A2ECFF"/>
<stop offset="0.48" stop-color="#66D6FF"/>
<stop offset="0.71" stop-color="#3AC7FF"/>
<stop offset="0.89" stop-color="#1FBEFF"/>
<stop offset="1" stop-color="#15BAFF"/>
</linearGradient>
<linearGradient id="paint21_linear_138_30" x1="166.04" y1="276.34" x2="173.85" y2="276.34" gradientUnits="userSpaceOnUse">
<stop stop-color="#D4FDFF"/>
<stop offset="0.2" stop-color="#A2ECFF"/>
<stop offset="0.48" stop-color="#66D6FF"/>
<stop offset="0.71" stop-color="#3AC7FF"/>
<stop offset="0.89" stop-color="#1FBEFF"/>
<stop offset="1" stop-color="#15BAFF"/>
</linearGradient>
<linearGradient id="paint22_linear_138_30" x1="303.68" y1="227.75" x2="309.47" y2="227.75" gradientUnits="userSpaceOnUse">
<stop stop-color="#D4FDFF"/>
<stop offset="0.2" stop-color="#A2ECFF"/>
<stop offset="0.48" stop-color="#66D6FF"/>
<stop offset="0.71" stop-color="#3AC7FF"/>
<stop offset="0.89" stop-color="#1FBEFF"/>
<stop offset="1" stop-color="#15BAFF"/>
</linearGradient>
<linearGradient id="paint23_linear_138_30" x1="304.01" y1="235.57" x2="314.96" y2="235.57" gradientUnits="userSpaceOnUse">
<stop stop-color="#D4FDFF"/>
<stop offset="0.2" stop-color="#A2ECFF"/>
<stop offset="0.48" stop-color="#66D6FF"/>
<stop offset="0.71" stop-color="#3AC7FF"/>
<stop offset="0.89" stop-color="#1FBEFF"/>
<stop offset="1" stop-color="#15BAFF"/>
</linearGradient>
<linearGradient id="paint24_linear_138_30" x1="307.16" y1="227.59" x2="314.96" y2="227.59" gradientUnits="userSpaceOnUse">
<stop stop-color="#D4FDFF"/>
<stop offset="0.2" stop-color="#A2ECFF"/>
<stop offset="0.48" stop-color="#66D6FF"/>
<stop offset="0.71" stop-color="#3AC7FF"/>
<stop offset="0.89" stop-color="#1FBEFF"/>
<stop offset="1" stop-color="#15BAFF"/>
</linearGradient>
<linearGradient id="paint25_linear_138_30" x1="321.1" y1="227.75" x2="326.9" y2="227.75" gradientUnits="userSpaceOnUse">
<stop stop-color="#D4FDFF"/>
<stop offset="0.2" stop-color="#A2ECFF"/>
<stop offset="0.48" stop-color="#66D6FF"/>
<stop offset="0.71" stop-color="#3AC7FF"/>
<stop offset="0.89" stop-color="#1FBEFF"/>
<stop offset="1" stop-color="#15BAFF"/>
</linearGradient>
<linearGradient id="paint26_linear_138_30" x1="315.62" y1="235.57" x2="326.57" y2="235.57" gradientUnits="userSpaceOnUse">
<stop stop-color="#D4FDFF"/>
<stop offset="0.2" stop-color="#A2ECFF"/>
<stop offset="0.48" stop-color="#66D6FF"/>
<stop offset="0.71" stop-color="#3AC7FF"/>
<stop offset="0.89" stop-color="#1FBEFF"/>
<stop offset="1" stop-color="#15BAFF"/>
</linearGradient>
<linearGradient id="paint27_linear_138_30" x1="315.62" y1="227.59" x2="323.42" y2="227.59" gradientUnits="userSpaceOnUse">
<stop stop-color="#D4FDFF"/>
<stop offset="0.2" stop-color="#A2ECFF"/>
<stop offset="0.48" stop-color="#66D6FF"/>
<stop offset="0.71" stop-color="#3AC7FF"/>
<stop offset="0.89" stop-color="#1FBEFF"/>
<stop offset="1" stop-color="#15BAFF"/>
</linearGradient>
<linearGradient id="paint28_linear_138_30" x1="249.55" y1="251.67" x2="257" y2="251.67" gradientUnits="userSpaceOnUse">
<stop stop-color="#D4FDFF"/>
<stop offset="0.2" stop-color="#A2ECFF"/>
<stop offset="0.48" stop-color="#66D6FF"/>
<stop offset="0.71" stop-color="#3AC7FF"/>
<stop offset="0.89" stop-color="#1FBEFF"/>
<stop offset="1" stop-color="#15BAFF"/>
</linearGradient>
<linearGradient id="paint29_linear_138_30" x1="249.97" y1="261.74" x2="264.05" y2="261.74" gradientUnits="userSpaceOnUse">
<stop stop-color="#D4FDFF"/>
<stop offset="0.2" stop-color="#A2ECFF"/>
<stop offset="0.48" stop-color="#66D6FF"/>
<stop offset="0.71" stop-color="#3AC7FF"/>
<stop offset="0.89" stop-color="#1FBEFF"/>
<stop offset="1" stop-color="#15BAFF"/>
</linearGradient>
<linearGradient id="paint30_linear_138_30" x1="254.02" y1="251.47" x2="264.05" y2="251.47" gradientUnits="userSpaceOnUse">
<stop stop-color="#D4FDFF"/>
<stop offset="0.2" stop-color="#A2ECFF"/>
<stop offset="0.48" stop-color="#66D6FF"/>
<stop offset="0.71" stop-color="#3AC7FF"/>
<stop offset="0.89" stop-color="#1FBEFF"/>
<stop offset="1" stop-color="#15BAFF"/>
</linearGradient>
<linearGradient id="paint31_linear_138_30" x1="271.96" y1="251.67" x2="279.41" y2="251.67" gradientUnits="userSpaceOnUse">
<stop stop-color="#D4FDFF"/>
<stop offset="0.2" stop-color="#A2ECFF"/>
<stop offset="0.48" stop-color="#66D6FF"/>
<stop offset="0.71" stop-color="#3AC7FF"/>
<stop offset="0.89" stop-color="#1FBEFF"/>
<stop offset="1" stop-color="#15BAFF"/>
</linearGradient>
<linearGradient id="paint32_linear_138_30" x1="264.91" y1="261.74" x2="278.99" y2="261.74" gradientUnits="userSpaceOnUse">
<stop stop-color="#D4FDFF"/>
<stop offset="0.2" stop-color="#A2ECFF"/>
<stop offset="0.48" stop-color="#66D6FF"/>
<stop offset="0.71" stop-color="#3AC7FF"/>
<stop offset="0.89" stop-color="#1FBEFF"/>
<stop offset="1" stop-color="#15BAFF"/>
</linearGradient>
<linearGradient id="paint33_linear_138_30" x1="264.91" y1="251.47" x2="274.94" y2="251.47" gradientUnits="userSpaceOnUse">
<stop stop-color="#D4FDFF"/>
<stop offset="0.2" stop-color="#A2ECFF"/>
<stop offset="0.48" stop-color="#66D6FF"/>
<stop offset="0.71" stop-color="#3AC7FF"/>
<stop offset="0.89" stop-color="#1FBEFF"/>
<stop offset="1" stop-color="#15BAFF"/>
</linearGradient>
<linearGradient id="paint34_linear_138_30" x1="323.79" y1="280.48" x2="331.24" y2="280.48" gradientUnits="userSpaceOnUse">
<stop stop-color="#D4FDFF"/>
<stop offset="0.2" stop-color="#A2ECFF"/>
<stop offset="0.48" stop-color="#66D6FF"/>
<stop offset="0.71" stop-color="#3AC7FF"/>
<stop offset="0.89" stop-color="#1FBEFF"/>
<stop offset="1" stop-color="#15BAFF"/>
</linearGradient>
<linearGradient id="paint35_linear_138_30" x1="324.21" y1="290.55" x2="338.29" y2="290.55" gradientUnits="userSpaceOnUse">
<stop stop-color="#D4FDFF"/>
<stop offset="0.2" stop-color="#A2ECFF"/>
<stop offset="0.48" stop-color="#66D6FF"/>
<stop offset="0.71" stop-color="#3AC7FF"/>
<stop offset="0.89" stop-color="#1FBEFF"/>
<stop offset="1" stop-color="#15BAFF"/>
</linearGradient>
<linearGradient id="paint36_linear_138_30" x1="328.26" y1="280.28" x2="338.29" y2="280.28" gradientUnits="userSpaceOnUse">
<stop stop-color="#D4FDFF"/>
<stop offset="0.2" stop-color="#A2ECFF"/>
<stop offset="0.48" stop-color="#66D6FF"/>
<stop offset="0.71" stop-color="#3AC7FF"/>
<stop offset="0.89" stop-color="#1FBEFF"/>
<stop offset="1" stop-color="#15BAFF"/>
</linearGradient>
<linearGradient id="paint37_linear_138_30" x1="346.2" y1="280.48" x2="353.65" y2="280.48" gradientUnits="userSpaceOnUse">
<stop stop-color="#D4FDFF"/>
<stop offset="0.2" stop-color="#A2ECFF"/>
<stop offset="0.48" stop-color="#66D6FF"/>
<stop offset="0.71" stop-color="#3AC7FF"/>
<stop offset="0.89" stop-color="#1FBEFF"/>
<stop offset="1" stop-color="#15BAFF"/>
</linearGradient>
<linearGradient id="paint38_linear_138_30" x1="339.14" y1="290.55" x2="353.22" y2="290.55" gradientUnits="userSpaceOnUse">
<stop stop-color="#D4FDFF"/>
<stop offset="0.2" stop-color="#A2ECFF"/>
<stop offset="0.48" stop-color="#66D6FF"/>
<stop offset="0.71" stop-color="#3AC7FF"/>
<stop offset="0.89" stop-color="#1FBEFF"/>
<stop offset="1" stop-color="#15BAFF"/>
</linearGradient>
<linearGradient id="paint39_linear_138_30" x1="339.14" y1="280.28" x2="349.18" y2="280.28" gradientUnits="userSpaceOnUse">
<stop stop-color="#D4FDFF"/>
<stop offset="0.2" stop-color="#A2ECFF"/>
<stop offset="0.48" stop-color="#66D6FF"/>
<stop offset="0.71" stop-color="#3AC7FF"/>
<stop offset="0.89" stop-color="#1FBEFF"/>
<stop offset="1" stop-color="#15BAFF"/>
</linearGradient>
<linearGradient id="paint40_linear_138_30" x1="206.02" y1="239.1" x2="210.23" y2="239.1" gradientUnits="userSpaceOnUse">
<stop stop-color="#D4FDFF"/>
<stop offset="0.2" stop-color="#A2ECFF"/>
<stop offset="0.48" stop-color="#66D6FF"/>
<stop offset="0.71" stop-color="#3AC7FF"/>
<stop offset="0.89" stop-color="#1FBEFF"/>
<stop offset="1" stop-color="#15BAFF"/>
</linearGradient>
<linearGradient id="paint41_linear_138_30" x1="206.26" y1="244.79" x2="214.22" y2="244.79" gradientUnits="userSpaceOnUse">
<stop stop-color="#D4FDFF"/>
<stop offset="0.2" stop-color="#A2ECFF"/>
<stop offset="0.48" stop-color="#66D6FF"/>
<stop offset="0.71" stop-color="#3AC7FF"/>
<stop offset="0.89" stop-color="#1FBEFF"/>
<stop offset="1" stop-color="#15BAFF"/>
</linearGradient>
<linearGradient id="paint42_linear_138_30" x1="208.55" y1="238.99" x2="214.22" y2="238.99" gradientUnits="userSpaceOnUse">
<stop stop-color="#D4FDFF"/>
<stop offset="0.2" stop-color="#A2ECFF"/>
<stop offset="0.48" stop-color="#66D6FF"/>
<stop offset="0.71" stop-color="#3AC7FF"/>
<stop offset="0.89" stop-color="#1FBEFF"/>
<stop offset="1" stop-color="#15BAFF"/>
</linearGradient>
<linearGradient id="paint43_linear_138_30" x1="218.69" y1="239.1" x2="222.91" y2="239.1" gradientUnits="userSpaceOnUse">
<stop stop-color="#D4FDFF"/>
<stop offset="0.2" stop-color="#A2ECFF"/>
<stop offset="0.48" stop-color="#66D6FF"/>
<stop offset="0.71" stop-color="#3AC7FF"/>
<stop offset="0.89" stop-color="#1FBEFF"/>
<stop offset="1" stop-color="#15BAFF"/>
</linearGradient>
<linearGradient id="paint44_linear_138_30" x1="214.71" y1="244.79" x2="222.67" y2="244.79" gradientUnits="userSpaceOnUse">
<stop stop-color="#D4FDFF"/>
<stop offset="0.2" stop-color="#A2ECFF"/>
<stop offset="0.48" stop-color="#66D6FF"/>
<stop offset="0.71" stop-color="#3AC7FF"/>
<stop offset="0.89" stop-color="#1FBEFF"/>
<stop offset="1" stop-color="#15BAFF"/>
</linearGradient>
<linearGradient id="paint45_linear_138_30" x1="214.71" y1="238.99" x2="220.38" y2="238.99" gradientUnits="userSpaceOnUse">
<stop stop-color="#D4FDFF"/>
<stop offset="0.2" stop-color="#A2ECFF"/>
<stop offset="0.48" stop-color="#66D6FF"/>
<stop offset="0.71" stop-color="#3AC7FF"/>
<stop offset="0.89" stop-color="#1FBEFF"/>
<stop offset="1" stop-color="#15BAFF"/>
</linearGradient>
<linearGradient id="paint46_linear_138_30" x1="259.33" y1="197.42" x2="264.82" y2="197.42" gradientUnits="userSpaceOnUse">
<stop stop-color="#D4FDFF"/>
<stop offset="0.2" stop-color="#A2ECFF"/>
<stop offset="0.48" stop-color="#66D6FF"/>
<stop offset="0.71" stop-color="#3AC7FF"/>
<stop offset="0.89" stop-color="#1FBEFF"/>
<stop offset="1" stop-color="#15BAFF"/>
</linearGradient>
<linearGradient id="paint47_linear_138_30" x1="259.64" y1="204.83" x2="270.01" y2="204.83" gradientUnits="userSpaceOnUse">
<stop stop-color="#D4FDFF"/>
<stop offset="0.2" stop-color="#A2ECFF"/>
<stop offset="0.48" stop-color="#66D6FF"/>
<stop offset="0.71" stop-color="#3AC7FF"/>
<stop offset="0.89" stop-color="#1FBEFF"/>
<stop offset="1" stop-color="#15BAFF"/>
</linearGradient>
<linearGradient id="paint48_linear_138_30" x1="262.62" y1="197.27" x2="270.01" y2="197.27" gradientUnits="userSpaceOnUse">
<stop stop-color="#D4FDFF"/>
<stop offset="0.2" stop-color="#A2ECFF"/>
<stop offset="0.48" stop-color="#66D6FF"/>
<stop offset="0.71" stop-color="#3AC7FF"/>
<stop offset="0.89" stop-color="#1FBEFF"/>
<stop offset="1" stop-color="#15BAFF"/>
</linearGradient>
<linearGradient id="paint49_linear_138_30" x1="275.84" y1="197.42" x2="281.33" y2="197.42" gradientUnits="userSpaceOnUse">
<stop stop-color="#D4FDFF"/>
<stop offset="0.2" stop-color="#A2ECFF"/>
<stop offset="0.48" stop-color="#66D6FF"/>
<stop offset="0.71" stop-color="#3AC7FF"/>
<stop offset="0.89" stop-color="#1FBEFF"/>
<stop offset="1" stop-color="#15BAFF"/>
</linearGradient>
<linearGradient id="paint50_linear_138_30" x1="270.65" y1="204.83" x2="281.02" y2="204.83" gradientUnits="userSpaceOnUse">
<stop stop-color="#D4FDFF"/>
<stop offset="0.2" stop-color="#A2ECFF"/>
<stop offset="0.48" stop-color="#66D6FF"/>
<stop offset="0.71" stop-color="#3AC7FF"/>
<stop offset="0.89" stop-color="#1FBEFF"/>
<stop offset="1" stop-color="#15BAFF"/>
</linearGradient>
<linearGradient id="paint51_linear_138_30" x1="270.65" y1="197.27" x2="278.04" y2="197.27" gradientUnits="userSpaceOnUse">
<stop stop-color="#D4FDFF"/>
<stop offset="0.2" stop-color="#A2ECFF"/>
<stop offset="0.48" stop-color="#66D6FF"/>
<stop offset="0.71" stop-color="#3AC7FF"/>
<stop offset="0.89" stop-color="#1FBEFF"/>
<stop offset="1" stop-color="#15BAFF"/>
</linearGradient>
<linearGradient id="paint52_linear_138_30" x1="162.81" y1="206.97" x2="167.02" y2="206.97" gradientUnits="userSpaceOnUse">
<stop stop-color="#D4FDFF"/>
<stop offset="0.2" stop-color="#A2ECFF"/>
<stop offset="0.48" stop-color="#66D6FF"/>
<stop offset="0.71" stop-color="#3AC7FF"/>
<stop offset="0.89" stop-color="#1FBEFF"/>
<stop offset="1" stop-color="#15BAFF"/>
</linearGradient>
<linearGradient id="paint53_linear_138_30" x1="163.05" y1="212.66" x2="171.01" y2="212.66" gradientUnits="userSpaceOnUse">
<stop stop-color="#D4FDFF"/>
<stop offset="0.2" stop-color="#A2ECFF"/>
<stop offset="0.48" stop-color="#66D6FF"/>
<stop offset="0.71" stop-color="#3AC7FF"/>
<stop offset="0.89" stop-color="#1FBEFF"/>
<stop offset="1" stop-color="#15BAFF"/>
</linearGradient>
<linearGradient id="paint54_linear_138_30" x1="165.34" y1="206.86" x2="171.01" y2="206.86" gradientUnits="userSpaceOnUse">
<stop stop-color="#D4FDFF"/>
<stop offset="0.2" stop-color="#A2ECFF"/>
<stop offset="0.48" stop-color="#66D6FF"/>
<stop offset="0.71" stop-color="#3AC7FF"/>
<stop offset="0.89" stop-color="#1FBEFF"/>
<stop offset="1" stop-color="#15BAFF"/>
</linearGradient>
<linearGradient id="paint55_linear_138_30" x1="175.48" y1="206.97" x2="179.7" y2="206.97" gradientUnits="userSpaceOnUse">
<stop stop-color="#D4FDFF"/>
<stop offset="0.2" stop-color="#A2ECFF"/>
<stop offset="0.48" stop-color="#66D6FF"/>
<stop offset="0.71" stop-color="#3AC7FF"/>
<stop offset="0.89" stop-color="#1FBEFF"/>
<stop offset="1" stop-color="#15BAFF"/>
</linearGradient>
<linearGradient id="paint56_linear_138_30" x1="171.49" y1="212.66" x2="179.46" y2="212.66" gradientUnits="userSpaceOnUse">
<stop stop-color="#D4FDFF"/>
<stop offset="0.2" stop-color="#A2ECFF"/>
<stop offset="0.48" stop-color="#66D6FF"/>
<stop offset="0.71" stop-color="#3AC7FF"/>
<stop offset="0.89" stop-color="#1FBEFF"/>
<stop offset="1" stop-color="#15BAFF"/>
</linearGradient>
<linearGradient id="paint57_linear_138_30" x1="171.49" y1="206.86" x2="177.17" y2="206.86" gradientUnits="userSpaceOnUse">
<stop stop-color="#D4FDFF"/>
<stop offset="0.2" stop-color="#A2ECFF"/>
<stop offset="0.48" stop-color="#66D6FF"/>
<stop offset="0.71" stop-color="#3AC7FF"/>
<stop offset="0.89" stop-color="#1FBEFF"/>
<stop offset="1" stop-color="#15BAFF"/>
</linearGradient>
<linearGradient id="paint58_linear_138_30" x1="307.95" y1="168.19" x2="312.17" y2="168.19" gradientUnits="userSpaceOnUse">
<stop stop-color="#D4FDFF"/>
<stop offset="0.2" stop-color="#A2ECFF"/>
<stop offset="0.48" stop-color="#66D6FF"/>
<stop offset="0.71" stop-color="#3AC7FF"/>
<stop offset="0.89" stop-color="#1FBEFF"/>
<stop offset="1" stop-color="#15BAFF"/>
</linearGradient>
<linearGradient id="paint59_linear_138_30" x1="308.19" y1="173.88" x2="316.16" y2="173.88" gradientUnits="userSpaceOnUse">
<stop stop-color="#D4FDFF"/>
<stop offset="0.2" stop-color="#A2ECFF"/>
<stop offset="0.48" stop-color="#66D6FF"/>
<stop offset="0.71" stop-color="#3AC7FF"/>
<stop offset="0.89" stop-color="#1FBEFF"/>
<stop offset="1" stop-color="#15BAFF"/>
</linearGradient>
<linearGradient id="paint60_linear_138_30" x1="310.48" y1="168.08" x2="316.16" y2="168.08" gradientUnits="userSpaceOnUse">
<stop stop-color="#D4FDFF"/>
<stop offset="0.2" stop-color="#A2ECFF"/>
<stop offset="0.48" stop-color="#66D6FF"/>
<stop offset="0.71" stop-color="#3AC7FF"/>
<stop offset="0.89" stop-color="#1FBEFF"/>
<stop offset="1" stop-color="#15BAFF"/>
</linearGradient>
<linearGradient id="paint61_linear_138_30" x1="320.63" y1="168.19" x2="324.84" y2="168.19" gradientUnits="userSpaceOnUse">
<stop stop-color="#D4FDFF"/>
<stop offset="0.2" stop-color="#A2ECFF"/>
<stop offset="0.48" stop-color="#66D6FF"/>
<stop offset="0.71" stop-color="#3AC7FF"/>
<stop offset="0.89" stop-color="#1FBEFF"/>
<stop offset="1" stop-color="#15BAFF"/>
</linearGradient>
<linearGradient id="paint62_linear_138_30" x1="316.64" y1="173.88" x2="324.6" y2="173.88" gradientUnits="userSpaceOnUse">
<stop stop-color="#D4FDFF"/>
<stop offset="0.2" stop-color="#A2ECFF"/>
<stop offset="0.48" stop-color="#66D6FF"/>
<stop offset="0.71" stop-color="#3AC7FF"/>
<stop offset="0.89" stop-color="#1FBEFF"/>
<stop offset="1" stop-color="#15BAFF"/>
</linearGradient>
<linearGradient id="paint63_linear_138_30" x1="316.64" y1="168.08" x2="322.31" y2="168.08" gradientUnits="userSpaceOnUse">
<stop stop-color="#D4FDFF"/>
<stop offset="0.2" stop-color="#A2ECFF"/>
<stop offset="0.48" stop-color="#66D6FF"/>
<stop offset="0.71" stop-color="#3AC7FF"/>
<stop offset="0.89" stop-color="#1FBEFF"/>
<stop offset="1" stop-color="#15BAFF"/>
</linearGradient>
<clipPath id="clip0_138_30">
<rect width="385" height="385" fill="white"/>
</clipPath>
</defs>
</svg>
